<?xml version="1.0" encoding="utf-8"?>
<svg xmlns="http://www.w3.org/2000/svg" style="margin: auto; background: rgb(255, 250, 240); display: block; shape-rendering: auto; animation-play-state: running; animation-delay: 0s;" width="280" height="250" preserveAspectRatio="xMidYMid">
<style type="text/css" style="animation-play-state: running; animation-delay: 0s;">
  text {
    text-anchor: middle; font-size: 80px; opacity: 0;
  }
</style>
<g style="transform-origin: 140px 125px 0px; transform: scale(1); animation-play-state: running; animation-delay: 0s;">
<g transform="translate(140,125)" style="animation-play-state: running; animation-delay: 0s;">
  <g transform="translate(0,0)" style="animation-play-state: running; animation-delay: 0s;"><g class="path" style="transform: matrix(1, 0, 0, 1, 0, 0); transform-origin: -24.4933px -4.54333px 0px; animation: 1.72414s linear -0.853448s infinite normal forwards running bounce-a6546080-cda7-489a-9867-c535c05cdbe6;"><path d="M-2.72-5.52L-2.72-5.52L-2.72-5.52Q-1.44-8.72 0.92-12.96L0.92-12.96L0.92-12.96Q3.28-17.20 5.04-19.84L5.04-19.84L6.80-22.40L6.80-22.40Q7.92-24 9.04-24L9.04-24L9.04-24Q9.92-24 9.92-23.12L9.92-23.12L9.68-22.32L9.68-22.32Q6.80-15.04 6.80-9.76L6.80-9.76L6.80-9.76Q6.80-5.52 8.68-2.84L8.68-2.84L8.68-2.84Q10.56-0.16 14.56-0.16L14.56-0.16L14.56-0.16Q20.56-0.16 24.24-5.40L24.24-5.40L24.24-5.40Q27.92-10.64 27.92-16.72L27.92-16.72L27.92-16.72Q27.92-21.92 24.36-31.56L24.36-31.56L24.36-31.56Q20.80-41.20 20.80-44.64L20.80-44.64L20.80-44.64Q20.80-52.08 27.16-56.60L27.16-56.60L27.16-56.60Q33.52-61.12 41.12-61.12L41.12-61.12L41.12-61.12Q42.48-61.12 43.80-60.96L43.80-60.96L43.80-60.96Q45.12-60.80 46.72-60.44L46.72-60.44L46.72-60.44Q48.32-60.08 49.28-59.28L49.28-59.28L49.28-59.28Q50.24-58.48 50.24-57.28L50.24-57.28L50.24-57.28Q50.24-55.68 48-51.84L48-51.84L48-51.84Q45.76-48 44.24-46L44.24-46L44.24-46Q43.68-45.60 43.28-45.60L43.28-45.60L43.28-45.60Q42.72-45.60 42.72-46.56L42.72-46.56L42.72-46.56Q42.72-48.80 43.20-52.64L43.20-52.64L43.20-52.64Q43.20-58.88 38.40-58.88L38.40-58.88L38.40-58.88Q34.32-58.88 31.48-56.08L31.48-56.08L31.48-56.08Q28.64-53.28 28.64-49.28L28.64-49.28L28.64-49.28Q28.64-44 32.36-34.56L32.36-34.56L32.36-34.56Q36.08-25.12 36.08-20L36.08-20L36.08-20Q36.08-10.40 28.52-4.20L28.52-4.20L28.52-4.20Q20.96 2 11.52 2L11.52 2L11.52 2Q9.92 2 7.68 1.68L7.68 1.68L7.68 1.68Q5.44 1.36 2.96 0.68L2.96 0.68L2.96 0.68Q0.48 0-1.24-1.32L-1.24-1.32L-1.24-1.32Q-2.96-2.64-2.96-4.32L-2.96-4.32L-2.96-4.32Q-2.96-4.96-2.72-5.52" fill="#2c160a" stroke="none" stroke-width="none" transform="translate(-48.133338928222656,25.01666763305664)" style="fill: rgb(44, 22, 10); animation-play-state: running; animation-delay: 0s;"></path></g><g class="path" style="transform: matrix(1, 0, 0, 1, 0, 0); transform-origin: 6.42666px -11.1433px 0px; animation: 1.72414s linear -0.568966s infinite normal forwards running bounce-a6546080-cda7-489a-9867-c535c05cdbe6;"><path d="M64.56-12.08L64.56-12.08L64.56-12.08Q67.92-15.44 73.44-21.76L73.44-21.76L73.44-21.76Q73.68-22 73.84-22L73.84-22L73.84-22Q74-22 74-21.68L74-21.68L74-21.68Q74-20.16 72.80-18.72L72.80-18.72L72.80-18.72Q66.88-12.16 62.32-7.76L62.32-7.76L62.32-7.76Q52.72 1.12 49.68 1.12L49.68 1.12L49.68 1.12Q48.48 1.12 48.48-0.40L48.48-0.40L48.48-0.40Q48.48-3.28 51.76-9.16L51.76-9.16L51.76-9.16Q55.04-15.04 58.28-20.12L58.28-20.12L58.28-20.12Q61.52-25.20 61.52-26.08L61.52-26.08L61.52-26.08Q61.52-26.56 61.04-26.56L61.04-26.56L61.04-26.56Q59.12-26.56 53.76-20.64L53.76-20.64L53.76-20.64Q48.40-14.72 44.72-10L44.72-10L44.72-10Q40.64-4.88 37.64-1.84L37.64-1.84L37.64-1.84Q34.64 1.20 33.68 1.60L33.68 1.60L32.64 2.08L32.64 2.08Q31.92 2.08 31.92 1.28L31.92 1.28L31.92 1.28Q31.92 0 33.36-3.28L33.36-3.28L33.36-3.28Q34.80-6.56 36.24-9.20L36.24-9.20L37.68-11.84L50.16-34.24L50.16-34.24Q64.88-60.24 73.36-71.20L73.36-71.20L73.36-71.20Q75.76-74.40 76.72-74.40L76.72-74.40L76.72-74.40Q77.20-74.40 77.20-73.76L77.20-73.76L77.20-73.76Q77.20-72.08 74.64-66.88L74.64-66.88L74.64-66.88Q62.08-44.24 57.20-35.52L57.20-35.52L57.20-35.52Q54.24-30.24 51.84-26.12L51.84-26.12L51.84-26.12Q49.44-22 48.44-20.32L48.44-20.32L48.44-20.32Q47.44-18.64 46.72-17.40L46.72-17.40L46.72-17.40Q46-16.16 45.60-15.28L45.60-15.28L45.60-15.28Q45.52-15.04 45.52-14.80L45.52-14.80L45.52-14.80Q45.52-14.40 45.68-14.40L45.68-14.40L45.68-14.40Q45.84-14.40 46.32-14.88L46.32-14.88L46.32-14.88Q64.24-34.80 69.84-34.80L69.84-34.80L69.84-34.80Q70.96-34.80 70.96-33.68L70.96-33.68L70.96-33.68Q70.96-33.36 70.64-32.28L70.64-32.28L70.64-32.28Q70.32-31.20 68.80-27.92L68.80-27.92L68.80-27.92Q67.28-24.64 64.80-20.64L64.80-20.64L64.80-20.64Q63.28-18.40 60.96-14.24L60.96-14.24L60.96-14.24Q58.64-10.08 58.64-8.80L58.64-8.80L58.64-8.80Q58.64-8.08 59.36-8.08L59.36-8.08L59.36-8.08Q59.60-8.08 60.04-8.28L60.04-8.28L60.04-8.28Q60.48-8.48 61.04-8.96L61.04-8.96L61.04-8.96Q61.60-9.44 62.04-9.84L62.04-9.84L62.04-9.84Q62.48-10.24 63.32-11L63.32-11L63.32-11Q64.16-11.76 64.56-12.08" fill="#2c160a" stroke="none" stroke-width="none" transform="translate(-48.133338928222656,25.01666763305664)" style="fill: rgb(44, 22, 10); animation-play-state: running; animation-delay: 0s;"></path></g><g class="path" style="transform: matrix(1, 0, 0, 1, 0, 0); transform-origin: 27.9067px 8.05667px 0px; animation: 1.72414s linear -0.284483s infinite normal forwards running bounce-a6546080-cda7-489a-9867-c535c05cdbe6;"><path d="M76.88-7.76L76.88-7.76L76.88-7.76Q67.52 1.04 64.88 1.04L64.88 1.04L64.88 1.04Q63.52 1.04 63.52-0.80L63.52-0.80L63.52-0.80Q63.52-2.64 64.96-6.16L64.96-6.16L64.96-6.16Q66.40-9.68 67.84-12.32L67.84-12.32L69.28-14.88L69.28-14.88Q75.36-25.52 78.48-30.16L78.48-30.16L78.48-30.16Q79.84-32.16 81.96-33.56L81.96-33.56L81.96-33.56Q84.08-34.96 85.92-34.96L85.92-34.96L85.92-34.96Q86.56-34.96 86.56-34.40L86.56-34.40L86.56-34.40Q86.56-34 86-32.88L86-32.88L86-32.88Q85.04-31.12 81.28-24.48L81.28-24.48L81.28-24.48Q77.52-17.84 76.80-16.48L76.80-16.48L76.80-16.48Q73.52-10.72 73.52-8.80L73.52-8.80L73.52-8.80Q73.52-8.08 74-8.08L74-8.08L74-8.08Q74.80-8.08 79.12-12.08L79.12-12.08L79.12-12.08Q82.48-15.44 88-21.76L88-21.76L88-21.76Q88.24-22 88.40-22L88.40-22L88.40-22Q88.56-22 88.56-21.68L88.56-21.68L88.56-21.68Q88.56-20.16 87.36-18.72L87.36-18.72L87.36-18.72Q81.44-12.16 76.88-7.76" fill="#2c160a" stroke="none" stroke-width="none" transform="translate(-48.133338928222656,25.01666763305664)" style="fill: rgb(44, 22, 10); animation-play-state: running; animation-delay: 0s;"></path></g><g class="path" style="transform: matrix(1, 0, 0, 1, 0, 0); transform-origin: 41.2667px -19.1033px 0px; animation: 1.72414s linear 0s infinite normal forwards running bounce-a6546080-cda7-489a-9867-c535c05cdbe6;"><path d="M87.52-39.52L87.52-39.52L87.52-39.52Q85.52-39.52 85.52-41.92L85.52-41.92L85.52-41.92Q85.52-44.16 87.20-46.44L87.20-46.44L87.20-46.44Q88.88-48.72 90.88-48.72L90.88-48.72L90.88-48.72Q93.28-48.72 93.28-46L93.28-46L93.28-46Q93.28-43.76 91.44-41.64L91.44-41.64L91.44-41.64Q89.60-39.52 87.52-39.52" fill="#2c160a" stroke="none" stroke-width="none" transform="translate(-48.133338928222656,25.01666763305664)" style="fill: rgb(44, 22, 10); animation-play-state: running; animation-delay: 0s;"></path></g></g>
</g>
</g>
<style id="bounce-a6546080-cda7-489a-9867-c535c05cdbe6" data-anikit="">@keyframes bounce-a6546080-cda7-489a-9867-c535c05cdbe6
{
  0% {
    animation-timing-function: cubic-bezier(0.1361,0.2514,0.2175,0.8786);
    transform: translate(0,0px) scaleY(1);
  }
  37% {
    animation-timing-function: cubic-bezier(0.7674,0.1844,0.8382,0.7157);
    transform: translate(0,-39.96px) scaleY(1);
  }
  72% {
    animation-timing-function: cubic-bezier(0.1118,0.2149,0.2172,0.941);
    transform: translate(0,0px) scaleY(1);
  }
  87% {
    animation-timing-function: cubic-bezier(0.7494,0.2259,0.8209,0.6963);
    transform: translate(0,19.900000000000002px) scaleY(0.602);
  }
  100% {
    transform: translate(0,0px) scaleY(1);
  }
}</style></svg>